<svg width="60" height="84" viewBox="0 0 60 84" fill="none" xmlns="http://www.w3.org/2000/svg">
<path d="M58.5714 0.161133H12.0286C8.8384 0.161133 5.77888 1.43094 3.52309 3.69121C1.26729 5.95148 0 9.01706 0 12.2136C0 12.4426 0 12.6859 0 12.9006C0 13.1153 0 13.0008 0 13.0438V70.7437C0.00378095 74.0416 1.31293 77.2032 3.64024 79.5352C5.96755 81.8671 9.12297 83.1788 12.4143 83.1826H58.5714C58.9503 83.1826 59.3137 83.0318 59.5816 82.7634C59.8495 82.4949 60 82.1308 60 81.7512V1.59254C60 1.21291 59.8495 0.848822 59.5816 0.580382C59.3137 0.311941 58.9503 0.161133 58.5714 0.161133ZM24.1143 17.8104C23.7354 17.8104 23.372 17.9612 23.1041 18.2296C22.8362 18.498 22.6857 18.8621 22.6857 19.2418V22.4911L17.2571 26.8711V9.82312H30.9571V26.8711L25.5429 22.4911V19.2418C25.5429 18.8621 25.3923 18.498 25.1244 18.2296C24.8565 17.9612 24.4932 17.8104 24.1143 17.8104ZM57.1429 9.82312V13.5161H33.8143V9.82312H57.1429ZM33.8143 16.379H57.1429V21.3889H33.8143V16.379ZM5.52857 5.71498C7.25493 3.99215 9.59203 3.02457 12.0286 3.02394H57.1429V6.96031H11.1571C10.7783 6.96031 10.4149 7.11111 10.147 7.37956C9.87908 7.648 9.72857 8.01208 9.72857 8.39171C9.72857 8.77134 9.87908 9.13543 10.147 9.40387C10.4149 9.67231 10.7783 9.82312 11.1571 9.82312H14.4V13.5161H11.1571C10.7783 13.5161 10.4149 13.6669 10.147 13.9354C9.87908 14.2038 9.72857 14.5679 9.72857 14.9475C9.72857 15.3272 9.87908 15.6913 10.147 15.9597C10.4149 16.2281 10.7783 16.379 11.1571 16.379H14.4V21.3889H12.0286C11.7286 21.3889 11.4429 21.3889 11.1429 21.3889C8.98377 21.1758 6.96897 20.2062 5.45328 18.6509C3.93759 17.0955 3.01824 15.0542 2.85714 12.8863C2.85714 12.6716 2.85714 12.4283 2.85714 12.2136C2.85619 9.77888 3.81655 7.4427 5.52857 5.71498ZM57.1429 80.3198H12.4143C9.88074 80.316 7.45203 79.3059 5.66054 77.5109C3.86905 75.7158 2.86092 73.2823 2.85714 70.7437V19.9718L2.97143 20.1006C3.14286 20.301 3.34286 20.5014 3.52857 20.6875L3.8 20.9594C4.09144 21.237 4.39658 21.4998 4.71429 21.7467L5.68571 22.4195L6.02857 22.6199L6.74286 23.0064L7.17143 23.1924L7.87143 23.4787L8.32857 23.6362C8.56738 23.7209 8.81059 23.7925 9.05714 23.8509L9.51429 23.9654L10.3429 24.1085H10.7571C11.1759 24.1303 11.5955 24.1303 12.0143 24.1085H14.3857V29.7196C14.3848 29.9905 14.4606 30.2561 14.6043 30.4855C14.748 30.7149 14.9538 30.8988 15.1976 31.0157C15.4415 31.1326 15.7134 31.1778 15.9819 31.146C16.2504 31.1143 16.5043 31.0068 16.7143 30.8361L24.1 24.8672L31.4286 30.9793C31.554 31.0647 31.6881 31.1367 31.8286 31.194H31.9571H32.2571H32.4C32.7789 31.194 33.1422 31.0432 33.4102 30.7747C33.6781 30.5063 33.8286 30.1422 33.8286 29.7626V24.2517H57.1429V80.3198Z" fill="#2B59C3"/>
<path d="M42.9895 53.6255L35.2426 49.9092L39.2845 37.4091C39.4529 36.7334 39.2845 35.8888 38.6109 35.551C38.1056 35.0442 37.2636 35.0442 36.5899 35.551L16.7175 49.4025C16.2122 49.7403 15.8754 50.2471 16.0438 50.9227C16.0438 51.5984 16.3806 52.1052 17.0543 52.2741L24.6328 55.9904L19.412 67.8148C19.0752 68.4905 19.2436 69.3351 19.9173 69.8418C20.2541 70.1797 20.5909 70.1797 21.0961 70.1797C21.433 70.1797 21.7698 70.1797 21.9382 69.8418L43.1579 56.666C43.6632 56.3282 44 55.8214 44 55.1458C44 54.4701 43.4948 53.9633 42.9895 53.6255ZM24.6328 64.2675L28.3378 55.9904C28.6746 55.1458 28.3378 54.1322 27.4957 53.7944L21.0961 50.7538L34.569 41.4632L31.706 50.5849C31.3692 51.4295 31.8744 52.2741 32.5481 52.6119L38.7793 55.6525L24.6328 64.2675Z" fill="#2B59C3"/>
</svg>
