<svg width="85" height="71" viewBox="0 0 85 71" fill="none" xmlns="http://www.w3.org/2000/svg">
<path d="M73.1 0.0947266L35 0.194752V16.0989H29V29.1022H35V35.1038H0V61.1105H35V70.1128H84V11.1976L84.1 11.0976L73.1 0.0947266ZM73 4.29581L79.9 11.1976H73V4.29581ZM32 26.1014V19.0996H46V26.1014H32ZM45.5 38.1045L24.5 46.5067L3.5 38.1045H45.5ZM3 58.1097V41.1053L24.5 49.7075L46 41.1053V58.1097H3ZM81 67.112H38V64.1112H46V61.1105H49V35.1038H38V32.103H46V29.1022H49V16.0989H38V3.19553H70V14.1984H73V17.1991H81V67.112Z" fill="#2B59C3"/>
</svg>
