<svg width="82" height="88" viewBox="0 0 82 88" fill="none" xmlns="http://www.w3.org/2000/svg">
<path d="M58.9294 16.7774C53.1287 11.6352 45.7461 9.26181 37.9679 10.0529C25.4438 11.5033 15.4245 21.6559 14.238 34.1819C13.447 42.4886 16.4792 50.5316 22.4117 56.2012C26.103 59.7613 28.3441 62.9257 28.6078 68.1998H27.4213C26.103 68.1998 24.9165 69.2546 24.9165 70.705V75.8472C24.9165 77.1658 25.9712 78.3524 27.4213 78.3524H31.2445V80.1984H27.8168C27.0258 80.1984 26.4985 80.7258 26.4985 81.5169C26.4985 82.308 27.0258 82.8354 27.8168 82.8354H31.2445V83.6265C31.2445 85.4725 32.6946 87.0547 34.6721 87.0547H47.3281C49.1737 87.0547 50.7557 85.6043 50.7557 83.6265V82.8354H54.1834C54.9744 82.8354 55.5017 82.308 55.5017 81.5169C55.5017 80.7258 54.9744 80.1984 54.1834 80.1984H50.7557V78.3524H54.5789C55.8972 78.3524 57.0837 77.2976 57.0837 75.8472V70.705C57.0837 69.3865 56.029 68.1998 54.5789 68.1998H53.3924C53.656 63.1894 55.7654 60.025 60.1158 55.6738C65.1255 50.6634 67.894 43.939 67.894 36.819C67.894 29.1715 64.73 21.9196 58.9294 16.7774ZM48.1191 81.5169V83.7584C48.1191 84.1539 47.8554 84.5495 47.3281 84.5495H34.6721C34.2766 84.5495 33.8811 84.2858 33.8811 83.7584V81.6487V78.4843H47.9872V81.5169H48.1191ZM54.447 75.7154H49.4374H32.6946H27.685V70.9687H30.058H52.0741H54.447V75.7154ZM58.2702 53.9598C54.3152 57.9153 51.0194 61.8709 50.7557 68.3317H31.2445C30.9808 62.1346 28.3441 58.3109 24.2573 54.3553C18.8522 49.2131 16.2155 41.9612 16.8747 34.4456C17.9294 23.1063 26.894 13.8766 38.2316 12.69C45.2187 11.8989 51.9422 14.0085 57.2155 18.7552C62.357 23.37 65.2573 29.9626 65.2573 36.819C65.2573 43.2797 62.8843 49.3449 58.2702 53.9598Z" fill="#2B59C3"/>
<path d="M51.151 38.5329L45.0867 35.6322L48.2507 25.875C48.3825 25.3476 48.2507 24.6883 47.7233 24.4246C47.3278 24.029 46.6687 24.029 46.1413 24.4246L30.5851 35.2366C30.1896 35.5003 29.9259 35.8959 30.0577 36.4233C30.0577 36.9507 30.3214 37.3463 30.8487 37.4781L36.7812 40.3789L32.6944 49.6086C32.4307 50.1361 32.5626 50.7953 33.0899 51.1909C33.3536 51.4546 33.6172 51.4546 34.0127 51.4546C34.2764 51.4546 34.54 51.4546 34.6719 51.1909L51.2828 40.9063C51.6783 40.6426 51.942 40.247 51.942 39.7196C51.942 39.1922 51.5465 38.7966 51.151 38.5329ZM36.7812 46.8397L39.6815 40.3789C39.9452 39.7196 39.6815 38.9285 39.0224 38.6648L34.0127 36.2914L44.5593 29.0395L42.3182 36.1596C42.0545 36.8188 42.45 37.4781 42.9773 37.7418L47.8552 40.1152L36.7812 46.8397Z" fill="#2B59C3"/>
<path d="M42.3183 5.04189V1.3502C42.3183 0.559123 41.791 0.0317383 41 0.0317383C40.209 0.0317383 39.6816 0.559123 39.6816 1.3502V5.04189C39.6816 5.83297 40.209 6.36035 41 6.36035C41.791 6.36035 42.3183 5.83297 42.3183 5.04189Z" fill="#2B59C3"/>
<path d="M14.7655 15.4589L12.1289 12.8214C11.6015 12.2939 10.8105 12.2939 10.2832 12.8214C9.75586 13.3489 9.75586 14.1401 10.2832 14.6676L12.9199 17.3051C13.1835 17.5688 13.579 17.7007 13.8427 17.7007C14.1063 17.7007 14.5018 17.5688 14.7655 17.3051C15.2928 16.7776 15.2928 15.9863 14.7655 15.4589Z" fill="#2B59C3"/>
<path d="M1.31833 44.861H5.00965C5.80064 44.861 6.32797 44.3337 6.32797 43.5428C6.32797 42.7519 5.80064 42.2246 5.00965 42.2246H1.31833C0.527331 42.2246 0 42.7519 0 43.5428C0 44.3337 0.527331 44.861 1.31833 44.861Z" fill="#2B59C3"/>
<path d="M80.6815 44.861C81.4725 44.861 81.9998 44.3337 81.9998 43.5428C81.9998 42.7519 81.4725 42.2246 80.6815 42.2246H76.9902C76.1992 42.2246 75.6719 42.7519 75.6719 43.5428C75.6719 44.3337 76.1992 44.861 76.9902 44.861H80.6815Z" fill="#2B59C3"/>
<path d="M69.2119 17.3051L71.8485 14.6676C72.3759 14.1401 72.3759 13.3489 71.8485 12.8214C71.3212 12.2939 70.5302 12.2939 70.0029 12.8214L67.3662 15.4589C66.8389 15.9863 66.8389 16.7776 67.3662 17.3051C67.6299 17.5688 68.0254 17.7007 68.289 17.7007C68.5527 17.7007 68.9482 17.5688 69.2119 17.3051Z" fill="#2B59C3"/>
</svg>
